<svg width="22" height="22" viewBox="0 0 22 22" fill="none" xmlns="http://www.w3.org/2000/svg">
<g opacity="0.7" clip-path="url(#clip0_520_233)">
<path d="M11 0.000289001C17.0751 0.000289001 22 4.92516 22 11.0003C22 17.0754 17.0751 22.0002 11 22.0002C4.92491 22.0002 4.56265e-05 17.0754 4.56265e-05 11.0003C-0.0172407 4.94239 4.87957 0.0175753 10.9374 0.000289001C10.9583 0.000229187 10.9791 0.000229187 11 0.000289001Z" fill="#F93D3D"/>
<path d="M11.7329 11.0165L14.848 7.90132C15.0507 7.69869 15.0507 7.37108 14.848 7.16845C14.6453 6.96582 14.3177 6.96582 14.1151 7.16845L11 10.2836L7.88491 7.16845C7.68219 6.96582 7.35467 6.96582 7.15204 7.16845C6.94932 7.37108 6.94932 7.69869 7.15204 7.90132L10.2671 11.0165L7.15204 14.1316C6.94932 14.3342 6.94932 14.6618 7.15204 14.8645C7.25302 14.9655 7.3858 15.0163 7.51848 15.0163C7.65116 15.0163 7.78384 14.9655 7.88491 14.8645L11 11.7493L14.1151 14.8645C14.2162 14.9655 14.3488 15.0163 14.4815 15.0163C14.6142 15.0163 14.7469 14.9655 14.848 14.8645C15.0507 14.6618 15.0507 14.3342 14.848 14.1316L11.7329 11.0165Z" fill="white" stroke="white"/>
</g>
<defs>
<clipPath id="clip0_520_233">
<rect width="22" height="22" fill="white"/>
</clipPath>
</defs>
</svg>
